<svg width="100" height="100" xmlns="http://www.w3.org/2000/svg"><g fill="none" fill-rule="evenodd"><path fill="#A7F7FC" d="M0 0h100v100H0z"/><path d="M50.056 41.504c1.113-3.67 3.19-5.504 6.23-5.504 1.566 0 2.92.537 4.064 1.61a5.423 5.423 0 0 1 1.22 1.79c.27.657.413 1.35.428 2.081a8.27 8.27 0 0 1-.27 2.237c-.196.761-.475 1.5-.836 2.215-.391.716-.933 1.574-1.625 2.573-.693 1-1.566 2.155-2.62 3.468a71.811 71.811 0 0 0-2.663 3.535 33.887 33.887 0 0 0-1.851 2.908 25.962 25.962 0 0 0-1.242 2.528 17.21 17.21 0 0 0-.835 2.484 21.795 21.795 0 0 0-.768-2.372 17.521 17.521 0 0 0-1.084-2.282c-.812-1.521-2.257-3.624-4.334-6.309-2.077-2.714-3.477-4.638-4.2-5.772a20.517 20.517 0 0 1-.88-1.499 6.683 6.683 0 0 1-.497-1.186 6.824 6.824 0 0 1-.225-1.074A9.724 9.724 0 0 1 38 41.727c0-1.55.542-2.893 1.625-4.027C40.77 36.567 42.094 36 43.6 36c3.07 0 5.222 1.835 6.457 5.504ZM.056 91.504C1.169 87.834 3.246 86 6.286 86c1.566 0 2.92.537 4.064 1.61a5.423 5.423 0 0 1 1.22 1.79c.27.657.413 1.35.428 2.081a8.27 8.27 0 0 1-.27 2.237c-.196.761-.475 1.5-.836 2.215-.391.716-.933 1.574-1.625 2.573-.693 1-1.566 2.155-2.62 3.468a71.811 71.811 0 0 0-2.663 3.535 33.887 33.887 0 0 0-1.851 2.908 25.962 25.962 0 0 0-1.242 2.528 17.21 17.21 0 0 0-.835 2.484 21.795 21.795 0 0 0-.768-2.372 17.521 17.521 0 0 0-1.084-2.282c-.812-1.521-2.257-3.624-4.334-6.309-2.077-2.714-3.477-4.638-4.2-5.772a20.517 20.517 0 0 1-.88-1.499 6.683 6.683 0 0 1-.497-1.186 6.824 6.824 0 0 1-.225-1.074A9.724 9.724 0 0 1-12 91.727c0-1.55.542-2.893 1.625-4.027C-9.23 86.567-7.906 86-6.4 86c3.07 0 5.222 1.835 6.457 5.504ZM.056-8.496C1.169-12.166 3.246-14 6.286-14c1.566 0 2.92.537 4.064 1.61a5.423 5.423 0 0 1 1.22 1.79c.27.657.413 1.35.428 2.081a8.27 8.27 0 0 1-.27 2.237c-.196.761-.475 1.5-.836 2.215-.391.716-.933 1.574-1.625 2.573-.693 1-1.566 2.155-2.62 3.468a71.811 71.811 0 0 0-2.663 3.535 33.887 33.887 0 0 0-1.851 2.908A25.962 25.962 0 0 0 .89 10.945a17.21 17.21 0 0 0-.835 2.484 21.795 21.795 0 0 0-.768-2.372 17.521 17.521 0 0 0-1.084-2.282c-.812-1.521-2.257-3.624-4.334-6.309-2.077-2.714-3.477-4.638-4.2-5.772a20.517 20.517 0 0 1-.88-1.499 6.683 6.683 0 0 1-.497-1.186 6.824 6.824 0 0 1-.225-1.074A9.724 9.724 0 0 1-12-8.273c0-1.55.542-2.893 1.625-4.027C-9.23-13.433-7.906-14-6.4-14c3.07 0 5.222 1.835 6.457 5.504ZM100.056-8.496c1.113-3.67 3.19-5.504 6.23-5.504 1.566 0 2.92.537 4.064 1.61a5.423 5.423 0 0 1 1.22 1.79c.27.657.413 1.35.428 2.081a8.27 8.27 0 0 1-.27 2.237c-.196.761-.475 1.5-.836 2.215-.391.716-.933 1.574-1.625 2.573-.693 1-1.566 2.155-2.62 3.468a71.812 71.812 0 0 0-2.663 3.535 33.887 33.887 0 0 0-1.851 2.908 25.962 25.962 0 0 0-1.242 2.528 17.21 17.21 0 0 0-.835 2.484 21.795 21.795 0 0 0-.768-2.372 17.521 17.521 0 0 0-1.084-2.282c-.812-1.521-2.257-3.624-4.334-6.309-2.077-2.714-3.477-4.638-4.2-5.772a20.517 20.517 0 0 1-.88-1.499 6.683 6.683 0 0 1-.497-1.186 6.824 6.824 0 0 1-.225-1.074A9.724 9.724 0 0 1 88-8.273c0-1.55.542-2.893 1.625-4.027C90.77-13.433 92.094-14 93.6-14c3.07 0 5.222 1.835 6.457 5.504ZM100.056 91.504c1.113-3.67 3.19-5.504 6.23-5.504 1.566 0 2.92.537 4.064 1.61a5.423 5.423 0 0 1 1.22 1.79c.27.657.413 1.35.428 2.081a8.27 8.27 0 0 1-.27 2.237c-.196.761-.475 1.5-.836 2.215-.391.716-.933 1.574-1.625 2.573-.693 1-1.566 2.155-2.62 3.468a71.812 71.812 0 0 0-2.663 3.535 33.887 33.887 0 0 0-1.851 2.908 25.962 25.962 0 0 0-1.242 2.528 17.21 17.21 0 0 0-.835 2.484 21.795 21.795 0 0 0-.768-2.372 17.521 17.521 0 0 0-1.084-2.282c-.812-1.521-2.257-3.624-4.334-6.309-2.077-2.714-3.477-4.638-4.2-5.772a20.517 20.517 0 0 1-.88-1.499 6.683 6.683 0 0 1-.497-1.186 6.824 6.824 0 0 1-.225-1.074A9.724 9.724 0 0 1 88 91.727c0-1.55.542-2.893 1.625-4.027C90.77 86.567 92.094 86 93.6 86c3.07 0 5.222 1.835 6.457 5.504Z" fill="#4FE6FC" fill-rule="nonzero"/></g></svg>