<svg width="100" height="100" xmlns="http://www.w3.org/2000/svg"><g fill="none" fill-rule="evenodd"><path fill="#FFFABF" d="M0 0h100v100H0z"/><path fill="#FFF000" d="M50.246 57.164 40.824 64l3.589-11.074L35 46.077l11.641-.008L50.246 35l3.605 11.069 11.641.008-9.413 6.849L59.669 64zM100.246 7.164 90.824 14l3.589-11.074L85-3.923l11.641-.008L100.246-15l3.605 11.069 11.641.008-9.413 6.849L109.669 14zM.246 7.164-9.176 14l3.589-11.074L-15-3.923l11.641-.008L.246-15 3.851-3.931l11.641.008-9.413 6.849L9.669 14zM.246 107.164-9.176 114l3.589-11.074L-15 96.077l11.641-.008L.246 85l3.605 11.069 11.641.008-9.413 6.849L9.669 114zM100.246 107.164 90.824 114l3.589-11.074L85 96.077l11.641-.008L100.246 85l3.605 11.069 11.641.008-9.413 6.849 3.59 11.074z"/></g></svg>