<svg width="100" height="100" xmlns="http://www.w3.org/2000/svg"><g fill="none" fill-rule="evenodd"><path fill="#FFFABF" d="M0 0h100v100H0z"/><path d="M50.05 36c.371 1.618.99 3.056 1.856 4.315.433.63 1.013 1.333 1.74 2.112.727.78 1.616 1.634 2.668 2.562 2.103 1.858 3.402 3.267 3.897 4.226.526 1.018.789 1.992.789 2.921 0 1.408-.51 2.577-1.531 3.506-1.02.899-2.15 1.348-3.387 1.348-2.351 0-4.284-1.393-5.8-4.18.03 3.237.68 5.484 1.949 6.742 1.268 1.259 2.443 1.978 3.526 2.158l3.294.54v.898c-1.825-.09-4.872-.135-9.14-.135-2.135 0-3.936.023-5.406.068-1.469.045-2.606.097-3.41.157v-.989l2.413-.224c.897-.09 1.933-.525 3.108-1.304 1.176-.809 2.027-1.895 2.552-3.259.526-1.363.774-2.914.743-4.652-1.361 2.787-3.34 4.18-5.94 4.18-1.36 0-2.536-.479-3.526-1.438a4.933 4.933 0 0 1-1.043-1.573 5.346 5.346 0 0 1-.395-1.753 5.15 5.15 0 0 1 .209-1.753c.17-.57.41-1.109.72-1.618.556-.929 1.793-2.158 3.711-3.686 1.856-1.468 3.302-2.914 4.338-4.337 1.036-1.423 1.725-3.034 2.065-4.832ZM.05 86c.371 1.618.99 3.056 1.856 4.315.433.63 1.013 1.333 1.74 2.112.727.78 1.616 1.634 2.668 2.562 2.103 1.858 3.402 3.267 3.897 4.226.526 1.018.789 1.992.789 2.921 0 1.408-.51 2.577-1.531 3.506-1.02.899-2.15 1.348-3.387 1.348-2.351 0-4.284-1.393-5.8-4.18.03 3.237.68 5.484 1.949 6.742 1.268 1.259 2.443 1.978 3.526 2.158l3.294.54v.898c-1.825-.09-4.872-.135-9.14-.135-2.135 0-3.936.023-5.406.068a83.37 83.37 0 0 0-3.41.157v-.989l2.413-.224c.897-.09 1.933-.525 3.108-1.304 1.176-.809 2.027-1.895 2.552-3.259.526-1.363.774-2.914.743-4.652-1.361 2.787-3.34 4.18-5.94 4.18-1.36 0-2.536-.479-3.526-1.438a4.933 4.933 0 0 1-1.043-1.573 5.346 5.346 0 0 1-.395-1.753 5.15 5.15 0 0 1 .209-1.753c.17-.57.41-1.109.72-1.618.556-.929 1.793-2.158 3.711-3.686 1.856-1.468 3.302-2.914 4.338-4.337C-.979 89.409-.29 87.798.05 86ZM.05-14c.371 1.618.99 3.056 1.856 4.315.433.63 1.013 1.333 1.74 2.112.727.78 1.616 1.634 2.668 2.562C8.417-3.153 9.716-1.744 10.21-.785 10.737.233 11 1.207 11 2.136c0 1.408-.51 2.577-1.531 3.506-1.02.899-2.15 1.348-3.387 1.348-2.351 0-4.284-1.393-5.8-4.18.03 3.237.68 5.484 1.949 6.742 1.268 1.259 2.443 1.978 3.526 2.158l3.294.54v.898c-1.825-.09-4.872-.135-9.14-.135-2.135 0-3.936.023-5.406.068-1.469.045-2.606.097-3.41.157v-.989l2.413-.224c.897-.09 1.933-.525 3.108-1.304 1.176-.809 2.027-1.895 2.552-3.259.526-1.363.774-2.914.743-4.652-1.361 2.787-3.34 4.18-5.94 4.18-1.36 0-2.536-.479-3.526-1.438a4.933 4.933 0 0 1-1.043-1.573 5.346 5.346 0 0 1-.395-1.753 5.15 5.15 0 0 1 .209-1.753c.17-.57.41-1.109.72-1.618.556-.929 1.793-2.158 3.711-3.686 1.856-1.468 3.302-2.914 4.338-4.337C-.979-10.591-.29-12.202.05-14ZM100.05-14c.371 1.618.99 3.056 1.856 4.315.433.63 1.013 1.333 1.74 2.112.727.78 1.616 1.634 2.668 2.562 2.103 1.858 3.402 3.267 3.897 4.226.526 1.018.789 1.992.789 2.921 0 1.408-.51 2.577-1.531 3.506-1.02.899-2.15 1.348-3.387 1.348-2.351 0-4.284-1.393-5.8-4.18.03 3.237.68 5.484 1.949 6.742 1.268 1.259 2.443 1.978 3.526 2.158l3.294.54v.898c-1.825-.09-4.872-.135-9.14-.135-2.135 0-3.936.023-5.406.068-1.469.045-2.606.097-3.41.157v-.989l2.413-.224c.897-.09 1.933-.525 3.108-1.304 1.176-.809 2.027-1.895 2.552-3.259.526-1.363.774-2.914.743-4.652-1.361 2.787-3.34 4.18-5.94 4.18-1.36 0-2.536-.479-3.526-1.438a4.933 4.933 0 0 1-1.043-1.573 5.346 5.346 0 0 1-.395-1.753 5.15 5.15 0 0 1 .209-1.753c.17-.57.41-1.109.72-1.618.556-.929 1.793-2.158 3.711-3.686 1.856-1.468 3.302-2.914 4.338-4.337 1.036-1.423 1.725-3.034 2.065-4.832ZM100.05 86c.371 1.618.99 3.056 1.856 4.315.433.63 1.013 1.333 1.74 2.112.727.78 1.616 1.634 2.668 2.562 2.103 1.858 3.402 3.267 3.897 4.226.526 1.018.789 1.992.789 2.921 0 1.408-.51 2.577-1.531 3.506-1.02.899-2.15 1.348-3.387 1.348-2.351 0-4.284-1.393-5.8-4.18.03 3.237.68 5.484 1.949 6.742 1.268 1.259 2.443 1.978 3.526 2.158l3.294.54v.898c-1.825-.09-4.872-.135-9.14-.135-2.135 0-3.936.023-5.406.068a83.37 83.37 0 0 0-3.41.157v-.989l2.413-.224c.897-.09 1.933-.525 3.108-1.304 1.176-.809 2.027-1.895 2.552-3.259.526-1.363.774-2.914.743-4.652-1.361 2.787-3.34 4.18-5.94 4.18-1.36 0-2.536-.479-3.526-1.438a4.933 4.933 0 0 1-1.043-1.573 5.346 5.346 0 0 1-.395-1.753 5.15 5.15 0 0 1 .209-1.753c.17-.57.41-1.109.72-1.618.556-.929 1.793-2.158 3.711-3.686 1.856-1.468 3.302-2.914 4.338-4.337 1.036-1.423 1.725-3.034 2.065-4.832Z" fill="#FFF000" fill-rule="nonzero"/></g></svg>