<svg width="100" height="100" xmlns="http://www.w3.org/2000/svg"><g fill="none" fill-rule="evenodd"><path fill="#B8F0B1" d="M0 0h100v100H0z"/><path d="M60 50.318a81.782 81.782 0 0 0-10.5 14.318c-2.813-4.865-6.313-9.638-10.5-14.318a78.512 78.512 0 0 0 5.813-7.112A88.37 88.37 0 0 0 49.5 36c2.906 5.02 6.406 9.793 10.5 14.318ZM10 100.318A81.782 81.782 0 0 0-.5 114.636c-2.813-4.865-6.313-9.638-10.5-14.318a78.512 78.512 0 0 0 5.813-7.112A88.37 88.37 0 0 0-.5 86c2.906 5.02 6.406 9.793 10.5 14.318ZM10 .318A81.782 81.782 0 0 0-.5 14.636C-3.313 9.771-6.813 4.998-11 .318a78.512 78.512 0 0 0 5.813-7.112A88.37 88.37 0 0 0-.5-14C2.406-8.98 5.906-4.207 10 .318ZM111 .318a81.782 81.782 0 0 0-10.5 14.318C97.687 9.771 94.187 4.998 90 .318a78.512 78.512 0 0 0 5.813-7.112A88.37 88.37 0 0 0 100.5-14c2.906 5.02 6.406 9.793 10.5 14.318ZM111 100.318a81.782 81.782 0 0 0-10.5 14.318c-2.813-4.865-6.313-9.638-10.5-14.318a78.512 78.512 0 0 0 5.813-7.112A88.37 88.37 0 0 0 100.5 86c2.906 5.02 6.406 9.793 10.5 14.318Z" fill="#5FF078" fill-rule="nonzero"/></g></svg>