<svg width="100" height="100" xmlns="http://www.w3.org/2000/svg"><g fill="none" fill-rule="evenodd"><path fill="#F8D8F8" d="M0 0h100v100H0z"/><path d="M54.91 46.055c1.545-.772 2.719-1.158 3.52-1.158 1.486 0 2.748.579 3.788 1.737 1.07 1.129 1.604 2.555 1.604 4.278 0 1.693-.594 3.133-1.782 4.321-1.159 1.188-2.57 1.782-4.233 1.782a7.595 7.595 0 0 1-1.805-.222 5.6 5.6 0 0 1-1.804-.825c-.594-.4-1.196-.935-1.804-1.604-.61-.668-1.196-1.522-1.76-2.561 0 2.94.594 5.183 1.782 6.727 1.188 1.485 2.332 2.391 3.43 2.718l3.788 1.025v.846c-.624-.059-1.664-.104-3.12-.133-1.455-.03-3.34-.045-5.658-.045-2.316 0-4.262.023-5.836.067-1.574.045-2.807.097-3.698.156v-.891l3.831-1.07c.98-.267 1.901-.92 2.763-1.96.832-1.01 1.41-2.02 1.737-3.03.327-1.069.49-2.54.49-4.41-.593 1.247-1.35 2.294-2.272 3.14-.92.847-1.9 1.441-2.94 1.783a6.102 6.102 0 0 1-3.186.178c-1.084-.223-2.072-.765-2.963-1.626C37.594 54.119 37 52.694 37 51s.52-3.134 1.56-4.322c1.069-1.188 2.287-1.782 3.653-1.782.802 0 2.005.386 3.609 1.158-.594-.95-.988-1.693-1.18-2.228a5.08 5.08 0 0 1-.29-1.737c0-.832.148-1.612.445-2.34a5.683 5.683 0 0 1 1.248-1.893 5.683 5.683 0 0 1 1.893-1.247 6.248 6.248 0 0 1 2.384-.446c1.663 0 3.104.58 4.322 1.738C55.832 39 56.426 40.367 56.426 42c0 1.336-.505 2.688-1.515 4.054ZM4.91 96.055c1.545-.772 2.719-1.158 3.52-1.158 1.486 0 2.748.579 3.788 1.737 1.07 1.129 1.604 2.555 1.604 4.278 0 1.693-.594 3.133-1.782 4.321-1.159 1.188-2.57 1.782-4.233 1.782a7.595 7.595 0 0 1-1.805-.222 5.6 5.6 0 0 1-1.804-.825c-.594-.4-1.196-.935-1.804-1.604-.61-.668-1.196-1.522-1.76-2.561 0 2.94.594 5.183 1.782 6.727 1.188 1.485 2.332 2.391 3.43 2.718l3.788 1.025v.846c-.624-.059-1.664-.104-3.12-.133-1.455-.03-3.34-.045-5.658-.045-2.316 0-4.262.023-5.836.067-1.574.045-2.807.097-3.698.156v-.891l3.831-1.07c.98-.267 1.901-.92 2.763-1.96.832-1.01 1.41-2.02 1.737-3.03.327-1.069.49-2.54.49-4.41-.593 1.247-1.35 2.294-2.272 3.14-.92.847-1.9 1.441-2.94 1.783a6.102 6.102 0 0 1-3.186.178c-1.084-.223-2.072-.765-2.963-1.626C-12.406 104.119-13 102.694-13 101s.52-3.134 1.56-4.322c1.069-1.188 2.287-1.782 3.653-1.782.802 0 2.005.386 3.609 1.158-.594-.95-.988-1.693-1.18-2.228a5.08 5.08 0 0 1-.29-1.737c0-.832.148-1.612.445-2.34a5.683 5.683 0 0 1 1.248-1.893 5.683 5.683 0 0 1 1.893-1.247 6.248 6.248 0 0 1 2.384-.446c1.663 0 3.104.58 4.322 1.738C5.832 89 6.426 90.367 6.426 92c0 1.336-.505 2.688-1.515 4.054ZM4.91-3.945c1.545-.772 2.719-1.158 3.52-1.158 1.486 0 2.748.579 3.788 1.737 1.07 1.129 1.604 2.555 1.604 4.278 0 1.693-.594 3.133-1.782 4.321-1.159 1.188-2.57 1.782-4.233 1.782a7.595 7.595 0 0 1-1.805-.222 5.6 5.6 0 0 1-1.804-.825c-.594-.4-1.196-.935-1.804-1.604-.61-.668-1.196-1.522-1.76-2.561 0 2.94.594 5.183 1.782 6.727 1.188 1.485 2.332 2.391 3.43 2.718l3.788 1.025v.846c-.624-.059-1.664-.104-3.12-.133-1.455-.03-3.34-.045-5.658-.045-2.316 0-4.262.023-5.836.067-1.574.045-2.807.097-3.698.156v-.891l3.831-1.07c.98-.267 1.901-.92 2.763-1.96.832-1.01 1.41-2.02 1.737-3.03.327-1.069.49-2.54.49-4.41-.593 1.247-1.35 2.294-2.272 3.14-.92.847-1.9 1.441-2.94 1.783a6.102 6.102 0 0 1-3.186.178c-1.084-.223-2.072-.765-2.963-1.626C-12.406 4.119-13 2.694-13 1s.52-3.134 1.56-4.322c1.069-1.188 2.287-1.782 3.653-1.782.802 0 2.005.386 3.609 1.158-.594-.95-.988-1.693-1.18-2.228a5.08 5.08 0 0 1-.29-1.737c0-.832.148-1.612.445-2.34a5.683 5.683 0 0 1 1.248-1.893 5.683 5.683 0 0 1 1.893-1.247 6.248 6.248 0 0 1 2.384-.446c1.663 0 3.104.58 4.322 1.738C5.832-11 6.426-9.633 6.426-8c0 1.336-.505 2.688-1.515 4.054ZM104.91-3.945c1.545-.772 2.719-1.158 3.52-1.158 1.486 0 2.748.579 3.788 1.737 1.07 1.129 1.604 2.555 1.604 4.278 0 1.693-.594 3.133-1.782 4.321-1.159 1.188-2.57 1.782-4.233 1.782a7.595 7.595 0 0 1-1.805-.222 5.6 5.6 0 0 1-1.804-.825c-.594-.4-1.196-.935-1.804-1.604-.61-.668-1.196-1.522-1.76-2.561 0 2.94.594 5.183 1.782 6.727 1.188 1.485 2.332 2.391 3.43 2.718l3.788 1.025v.846c-.624-.059-1.664-.104-3.12-.133-1.455-.03-3.34-.045-5.658-.045-2.316 0-4.262.023-5.836.067-1.574.045-2.807.097-3.698.156v-.891l3.831-1.07c.98-.267 1.901-.92 2.763-1.96.832-1.01 1.41-2.02 1.737-3.03.327-1.069.49-2.54.49-4.41-.593 1.247-1.35 2.294-2.272 3.14-.92.847-1.9 1.441-2.94 1.783a6.102 6.102 0 0 1-3.186.178c-1.084-.223-2.072-.765-2.963-1.626C87.594 4.119 87 2.694 87 1s.52-3.134 1.56-4.322c1.069-1.188 2.287-1.782 3.653-1.782.802 0 2.005.386 3.609 1.158-.594-.95-.988-1.693-1.18-2.228a5.08 5.08 0 0 1-.29-1.737c0-.832.148-1.612.445-2.34a5.683 5.683 0 0 1 1.248-1.893 5.683 5.683 0 0 1 1.893-1.247 6.248 6.248 0 0 1 2.384-.446c1.663 0 3.104.58 4.322 1.738C105.832-11 106.426-9.633 106.426-8c0 1.336-.505 2.688-1.515 4.054ZM104.91 96.055c1.545-.772 2.719-1.158 3.52-1.158 1.486 0 2.748.579 3.788 1.737 1.07 1.129 1.604 2.555 1.604 4.278 0 1.693-.594 3.133-1.782 4.321-1.159 1.188-2.57 1.782-4.233 1.782a7.595 7.595 0 0 1-1.805-.222 5.6 5.6 0 0 1-1.804-.825c-.594-.4-1.196-.935-1.804-1.604-.61-.668-1.196-1.522-1.76-2.561 0 2.94.594 5.183 1.782 6.727 1.188 1.485 2.332 2.391 3.43 2.718l3.788 1.025v.846c-.624-.059-1.664-.104-3.12-.133-1.455-.03-3.34-.045-5.658-.045-2.316 0-4.262.023-5.836.067-1.574.045-2.807.097-3.698.156v-.891l3.831-1.07c.98-.267 1.901-.92 2.763-1.96.832-1.01 1.41-2.02 1.737-3.03.327-1.069.49-2.54.49-4.41-.593 1.247-1.35 2.294-2.272 3.14-.92.847-1.9 1.441-2.94 1.783a6.102 6.102 0 0 1-3.186.178c-1.084-.223-2.072-.765-2.963-1.626C87.594 104.119 87 102.694 87 101s.52-3.134 1.56-4.322c1.069-1.188 2.287-1.782 3.653-1.782.802 0 2.005.386 3.609 1.158-.594-.95-.988-1.693-1.18-2.228a5.08 5.08 0 0 1-.29-1.737c0-.832.148-1.612.445-2.34a5.683 5.683 0 0 1 1.248-1.893 5.683 5.683 0 0 1 1.893-1.247 6.248 6.248 0 0 1 2.384-.446c1.663 0 3.104.58 4.322 1.738 1.188 1.099 1.782 2.465 1.782 4.099 0 1.336-.505 2.688-1.515 4.054Z" fill="#DE8FF5" fill-rule="nonzero"/></g></svg>